/* XPM */
static const char *const node_xpm[] = {
/* columns rows colors chars-per-pixel */
"24 24 2 1 ",
"  c None",
". c black",
/* pixels */
"         ......         ",
"      ............      ",
"     .....    .....     ",
"    ...          ...    ",
"   ...            ...   ",
"  ...              ...  ",
" ...                ... ",
" ..                  .. ",
" ..                  .. ",
"...                  ...",
"..                    ..",
"..                    ..",
"..                    ..",
"..                    ..",
"...                  ...",
" ..                  .. ",
" ..                  .. ",
" ...                ... ",
"  ...              ...  ",
"   ...            ...   ",
"    ...          ...    ",
"     .....    .....     ",
"      ............      ",
"         ......         "
};
