/* XPM */
static const char *const cursor_xpm[] = {
/* columns rows colors chars-per-pixel */
"24 24 127 2 ",
"   c None",
".  c #414143",
"X  c #414243",
"o  c #424345",
"O  c #434446",
"+  c #444546",
"@  c #454647",
"#  c #454648",
"$  c #464748",
"%  c #474849",
"&  c #48494A",
"*  c #494A4C",
"=  c #4A4B4C",
"-  c #4B4C4D",
";  c #4D4E4F",
":  c #505052",
">  c #525355",
",  c #57585A",
"<  c #5A5A5D",
"1  c #5F5F61",
"2  c #606162",
"3  c #656668",
"4  c #666769",
"5  c #69696C",
"6  c #696B6D",
"7  c #717174",
"8  c #77787A",
"9  c #7C7D80",
"0  c #808183",
"q  c #818284",
"w  c #818285",
"e  c #86878A",
"r  c #8B8D8E",
"t  c #8D8D91",
"y  c #8D8E91",
"u  c #8F9092",
"i  c #929295",
"p  c #929395",
"a  c #939495",
"s  c #939597",
"d  c #939697",
"f  c #959699",
"g  c #959799",
"h  c #96969A",
"j  c #999B9D",
"k  c #9A9B9D",
"l  c #A0A1A3",
"z  c #A1A2A5",
"x  c #A3A4A6",
"c  c #A2A5A6",
"v  c #A7A9AA",
"b  c #AAABAD",
"n  c #ABACAE",
"m  c #AEB0B2",
"M  c #B0B1B3",
"N  c #B0B2B4",
"B  c #B1B2B4",
"V  c #B4B5B8",
"C  c #B6B7BA",
"Z  c #B8BABC",
"A  c #BABBBD",
"S  c #BBBDBE",
"D  c #BBBDBF",
"F  c #BEBFC1",
"G  c #BEC0C1",
"H  c #BEC0C2",
"J  c #BFC1C2",
"K  c #C2C3C5",
"L  c #C2C5C5",
"P  c #C3C4C6",
"I  c #C3C5C6",
"U  c #C4C5C7",
"Y  c #C5C6C8",
"T  c #C5C7C8",
"R  c #C6C7C8",
"E  c #C6C7C9",
"W  c #C7C8C9",
"Q  c #C7C8CA",
"!  c #C8C8CA",
"~  c #C9CACA",
"^  c #C8CACB",
"/  c #C9CACC",
"(  c #C9CBCC",
")  c #C9CACD",
"_  c #CACBCD",
"`  c #CBCCCD",
"'  c #CACDCD",
"]  c #CBCCCE",
"[  c #CBCDCE",
"{  c #CCCECF",
"}  c #CDCECF",
"|  c #CDCED0",
" . c #CDCFD0",
".. c #CECED0",
"X. c #CECFD0",
"o. c #CECFD1",
"O. c #CED0D1",
"+. c #CFD0D2",
"@. c #D0D0D2",
"#. c #D0D1D2",
"$. c #D0D1D3",
"%. c #D1D1D3",
"&. c #D0D2D3",
"*. c #D0D1D4",
"=. c #D1D3D4",
"-. c #D2D3D4",
";. c #D4D4D6",
":. c #D4D5D7",
">. c #D5D5D7",
",. c #D4D6D6",
"<. c #D4D6D7",
"1. c #D5D6D7",
"2. c #D5D7D8",
"3. c #D6D6D8",
"4. c #D6D7D8",
"5. c #D6D8D9",
"6. c #D8D8DA",
"7. c #D8D9DB",
"8. c #D9D9DB",
"9. c #DADADC",
"0. c #DBDBDD",
"q. c #DDDDDF",
"w. c #DDDEDF",
"e. c #DFDFE1",
"r. c #E1E1E2",
"t. c #E2E3E4",
"y. c #E5E6E7",
/* pixels */
"        r                                       ",
"        ; D                                     ",
"        - t._ k                                 ",
"        * 4.#.#.x                               ",
"        * 1.D [ =.x                             ",
"        & 1.J J Q O.v                           ",
"        % =.K I I Y | N                         ",
"        % #.Y Y Y Y Q #.n k                     ",
"        $ | ^ ^ ^ ^ ^ _ [ N d                   ",
"        @ } [ [ [ [ [ [ [ O.F u                 ",
"        @ [ | | | | | O.| O.=.A f               ",
"        O _ =.#.#.#.#.=.1.4.5.7.Y f             ",
"        o Q 1.1.4.1.4.} e 7 3 3 3 6 :           ",
"        . Y 7.7.Y J 7.7.v                       ",
"        . I q.| i f #.9.^ 0                     ",
"        . U #.y   > m 7.9.M                     ",
"        . A d       w ^ r.| i                   ",
"        . y ,       $ b q.e.V 8                 ",
"          <           6 _ y.9.d                 ",
"                        z q.q.l                 ",
"                        9 K V 2                 ",
"                          w 1                   ",
"                                                ",
"                                                "
};
