/* XPM */
static const char *const process_color_xpm[] = {
/* columns rows colors chars-per-pixel */
"24 24 206 2 ",
"   c None",
".  c #034903",
"X  c #004C00",
"o  c #004E00",
"O  c #025602",
"+  c #035603",
"@  c #065106",
"#  c #055E05",
"$  c #095F0A",
"%  c #125E12",
"&  c #145C14",
"*  c #006500",
"=  c #046404",
"-  c #006E03",
";  c #066A08",
":  c #017001",
">  c #007400",
",  c #007600",
"<  c #037205",
"1  c #047204",
"2  c #057107",
"3  c #017605",
"4  c #007900",
"5  c #007E00",
"6  c #017B05",
"7  c #047F04",
"8  c #087209",
"9  c #057E09",
"0  c #116712",
"q  c #1B6D1B",
"w  c #1E691E",
"e  c #1C6E1C",
"r  c #177917",
"t  c #157F15",
"y  c #177F17",
"u  c #1A731A",
"i  c #1E6B20",
"p  c #226B22",
"a  c #266B26",
"s  c #207020",
"d  c #317932",
"f  c #367836",
"g  c #357C35",
"h  c #347F34",
"j  c #008100",
"k  c #008200",
"l  c #008500",
"z  c #008600",
"x  c #008700",
"c  c #008A00",
"v  c #038A03",
"b  c #068A07",
"n  c #058409",
"m  c #0C820E",
"M  c #09850D",
"N  c #078E09",
"B  c #0C890D",
"V  c #098D0D",
"C  c #009000",
"Z  c #009100",
"A  c #009500",
"S  c #009600",
"D  c #029502",
"F  c #049504",
"G  c #009800",
"H  c #019B01",
"J  c #009C00",
"K  c #009D00",
"L  c #009E00",
"P  c #009F00",
"I  c #09910B",
"U  c #0A940D",
"Y  c #0C950F",
"T  c #099F09",
"R  c #0D8B10",
"E  c #0E8B10",
"W  c #148415",
"Q  c #1D8613",
"!  c #148914",
"~  c #158F17",
"^  c #178E17",
"/  c #1D8B13",
"(  c #1A8A1A",
")  c #1A8D1B",
"_  c #0E9511",
"`  c #0F9413",
"'  c #0D9A10",
"]  c #0F9A10",
"[  c #0F9A13",
"{  c #0E9E11",
"}  c #119215",
"|  c #129715",
" . c #159C17",
".. c #1A971C",
"X. c #1D941D",
"o. c #199819",
"O. c #00A200",
"+. c #00A400",
"@. c #00A500",
"#. c #00A700",
"$. c #00A900",
"%. c #00AA00",
"&. c #00AD00",
"*. c #09AD09",
"=. c #00B000",
"-. c #00B100",
";. c #00B200",
":. c #00B300",
">. c #00B400",
",. c #00B600",
"<. c #00B700",
"1. c #00BC00",
"2. c #00BE00",
"3. c #0FA110",
"4. c #1BA11B",
"5. c #1DA71D",
"6. c #15BF17",
"7. c #278427",
"8. c #2B8D2B",
"9. c #2E8D2E",
"0. c #209C20",
"q. c #2A9E23",
"w. c #2C942C",
"e. c #2E962E",
"r. c #2A9B2A",
"t. c #318631",
"y. c #3C853C",
"u. c #388A38",
"i. c #3F893F",
"p. c #3F8E3F",
"a. c #319C31",
"s. c #369D36",
"d. c #3B923B",
"f. c #3C933C",
"g. c #399839",
"h. c #3E993E",
"j. c #23A123",
"k. c #26A526",
"l. c #20AB20",
"z. c #22AC22",
"x. c #25AB25",
"c. c #29A229",
"v. c #2AA72A",
"b. c #2DA72D",
"n. c #28A828",
"m. c #33A133",
"M. c #30A530",
"N. c #34A134",
"B. c #37A537",
"V. c #3AA73A",
"C. c #3DA73D",
"Z. c #00C000",
"A. c #00C200",
"S. c #00C500",
"D. c #04C304",
"F. c #00D000",
"G. c #00D200",
"H. c #448144",
"J. c #458345",
"K. c #418C41",
"L. c #4A854A",
"P. c #478848",
"I. c #419441",
"U. c #419F41",
"Y. c #499149",
"T. c #4A9F4A",
"R. c #4C984C",
"E. c #4D9B4D",
"W. c #4F9F4F",
"Q. c #518551",
"!. c #518E51",
"~. c #599459",
"^. c #5B965C",
"/. c #599A59",
"(. c #40A740",
"). c #43A543",
"_. c #46A246",
"`. c #48A748",
"'. c #4BAA4B",
"]. c #4EAB4E",
"[. c #52A452",
"{. c #51AB51",
"}. c #54AA54",
"|. c #57A957",
" X c #5BA75B",
".X c #5CA15C",
"XX c #5FA75F",
"oX c #5BAE5B",
"OX c #5EB05E",
"+X c #62A162",
"@X c #60A760",
"#X c #65A265",
"$X c #6AA56A",
"%X c #6DAB6D",
"&X c #62B162",
"*X c #65B165",
"=X c #6AB16A",
"-X c #6CB66C",
";X c #6FB86F",
":X c #72AF72",
">X c #72B472",
",X c #72B972",
"<X c #7BB37B",
"1X c #7DC07D",
"2X c #80C280",
"3X c #8ECD8E",
/* pixels */
"                                                ",
"                                                ",
"      Q.          Q.                            ",
"      H.L.X       H.!.X                         ",
"      w <X~.@     p 3X#X@                       ",
"      e $X%X+X%   w 1X2X:X&                     ",
"      u /..XXX@Xs q -X;X,X>Xa                   ",
"      r Y.R.W.[.|.I.oXOX&X*X=Xg X               ",
"      y u.d.h.U.).`.'.].{.|.|. Xi.O             ",
"      W 7.8.w.a.N.B.V.C.).)._.T.R.K.$           ",
"      ! y ( X.0.j.k.v.b.M.m.s.g.f.p.y.0         ",
"      B W ^ o.4.5.l.z.x.n.c.r.w.9.t.g f d P.    ",
"      b 5 v D K #.$.$.#.K D v 7 2 = O . i ^.    ",
"      N l C K $.=.<.<.=.#.K C k , * # ;         ",
"      I l D #.=.1.S.S.1.=.O.D l , 8 2           ",
"      U l G #.<.S.F.F.A.=.#.D l m <             ",
"      Y l D #.<.D.6.F.A.=.O.F R -               ",
"      ` k C K *.] { 1.<.$.T R                   ",
"      ` 4 l ] V   ] &.#.3.M                     ",
"      } : ^ n     | G  .9                       ",
"      q.) 6       q...3                         ",
"      /           Q                             ",
"                                                ",
"                                                "
};
